<?xml version="1.0" ?><svg enable-background="new 0 0 64 64" height="64px" version="1.1" viewBox="0 0 64 64" width="64px" xml:space="preserve" xmlns="http://www.w3.org/2000/svg" xmlns:xlink="http://www.w3.org/1999/xlink"><g id="Layer_1"><g><rect fill="#4F5D73" width="64" height="64"/></g><g><g><rect fill="#F5CF87" height="14" width="6" x="24" y="16"/></g><g><rect fill="#F5CF87" height="14" width="6" x="24" y="34"/></g><g><rect fill="#F5CF87" height="14" width="6" x="34" y="16"/></g><g><rect fill="#F5CF87" height="14" width="6" x="34" y="34"/></g></g><g opacity="0.2"><path d="M40,14H24c-2.209,0-4,1.791-4,4v32c0,2.209,1.791,4,4,4h16c2.209,0,4-1.791,4-4V18    C44,15.791,42.209,14,40,14z M30,50h-6V36h6V50z M30,32h-6V18h6V32z M40,50h-6V36h6V50z M40,32h-6V18h6V32z" fill="#231F20"/></g><g><path d="M40,12H24c-2.209,0-4,1.791-4,4v32c0,2.209,1.791,4,4,4h16c2.209,0,4-1.791,4-4V16    C44,13.791,42.209,12,40,12z M30,48h-6V34h6V48z M30,30h-6V16h6V30z M40,48h-6V34h6V48z M40,30h-6V16h6V30z" fill="#E0995E"/></g><g opacity="0.2"><circle cx="40" cy="34" fill="#231F20" r="3"/></g><g><circle cx="40" cy="32" fill="#F5CF87" r="3"/></g></g><g id="Layer_2"/></svg>
